pts_time:5.8
pts_time:5.833333
pts_time:10.066667
pts_time:10.1
pts_time:11.333333
pts_time:11.433333
pts_time:11.466667
